<svg xmlns="http://www.w3.org/2000/svg" xmlns:xlink="http://www.w3.org/1999/xlink" style="display:none">
    <symbol id="svg_btn_go_next" viewBox="0 0 20 20">
        <!--<path fill="#000" d="M17.4 6.1c0.3-0.3 0.7-0.3 1 0 0.3 0.3 0.3 0.7 0 1l-7.9 7.8c-0.3 0.3-0.7 0.3-1 0l-7.9-7.8c-0.3-0.3-0.3-0.7 0-1 0.3-0.3 0.7-0.3 1 0L10 13.3 17.4 6.1z" />-->
        <path d="M17.4 6.1c0.3-0.3 0.7-0.3 1 0 0.3 0.3 0.3 0.7 0 1l-7.9 7.8c-0.3 0.3-0.7 0.3-1 0l-7.9-7.8c-0.3-0.3-0.3-0.7 0-1 0.3-0.3 0.7-0.3 1 0L10 13.3 17.4 6.1z" />
    </symbol>
</svg>
